<svg xmlns="http://www.w3.org/2000/svg" xmlns:xlink="http://www.w3.org/1999/xlink" contentStyleType="text/css" height="1181px" preserveAspectRatio="none" style="width:755px;height:1181px;background:#0F172A;" version="1.1" viewBox="0 0 755 1181" width="755px" zoomAndPan="magnify"><title>Multi-Backend Path-Based Routing</title><defs/><g><rect fill="#0F172A" height="1181" style="stroke:none;stroke-width:1;" width="755" x="0" y="0"/><text fill="#F8FAFC" font-family="Segoe UI" font-size="22" font-weight="bold" lengthAdjust="spacing" textLength="432.0615" x="160.3115" y="35.4209">Multi-Backend Path-Based Routing</text><rect fill="#1E293B" height="152.8125" style="stroke:#334155;stroke-width:1;" width="10" x="246.6797" y="166.4844"/><rect fill="#1E293B" height="152.8125" style="stroke:#334155;stroke-width:1;" width="10" x="246.6797" y="372.2656"/><rect fill="#1E293B" height="208.6875" style="stroke:#334155;stroke-width:1;" width="10" x="246.6797" y="595.0156"/><rect fill="#1E293B" height="138.8438" style="stroke:#334155;stroke-width:1;" width="10" x="246.6797" y="873.6406"/><line style="stroke:#334155;stroke-width:1;" x1="69" x2="69" y1="94.5469" y2="1134.3594"/><line style="stroke:#334155;stroke-width:1;" x1="251.4268" x2="251.4268" y1="94.5469" y2="1134.3594"/><line style="stroke:#334155;stroke-width:1;" x1="549.79" x2="549.79" y1="94.5469" y2="1134.3594"/><line style="stroke:#334155;stroke-width:1;" x1="682.2373" x2="682.2373" y1="94.5469" y2="1134.3594"/><rect fill="#1E293B" height="27.9688" rx="2.5" ry="2.5" style="stroke:#3B82F6;stroke-width:1;" width="62.8906" x="38" y="65.5781"/><text fill="#F8FAFC" font-family="Segoe UI" font-size="12" lengthAdjust="spacing" textLength="48.8906" x="45" y="83.7168">Browser</text><rect fill="#1E293B" height="27.9688" rx="2.5" ry="2.5" style="stroke:#3B82F6;stroke-width:1;" width="62.8906" x="38" y="1133.3594"/><text fill="#F8FAFC" font-family="Segoe UI" font-size="12" lengthAdjust="spacing" textLength="48.8906" x="45" y="1151.498">Browser</text><rect fill="#1E293B" height="27.9688" rx="2.5" ry="2.5" style="stroke:#3B82F6;stroke-width:1;" width="78.5059" x="212.4268" y="65.5781"/><text fill="#F8FAFC" font-family="Segoe UI" font-size="12" lengthAdjust="spacing" textLength="64.5059" x="219.4268" y="83.7168">WAF Proxy</text><rect fill="#1E293B" height="27.9688" rx="2.5" ry="2.5" style="stroke:#3B82F6;stroke-width:1;" width="78.5059" x="212.4268" y="1133.3594"/><text fill="#F8FAFC" font-family="Segoe UI" font-size="12" lengthAdjust="spacing" textLength="64.5059" x="219.4268" y="1151.498">WAF Proxy</text><rect fill="#1E293B" height="41.9375" rx="2.5" ry="2.5" style="stroke:#3B82F6;stroke-width:1;" width="102.4473" x="498.79" y="51.6094"/><text fill="#F8FAFC" font-family="Segoe UI" font-size="12" lengthAdjust="spacing" textLength="31.0781" x="534.4746" y="69.748">App1</text><text fill="#F8FAFC" font-family="Segoe UI" font-size="12" lengthAdjust="spacing" textLength="88.4473" x="505.79" y="83.7168">localhost:3000</text><rect fill="#1E293B" height="41.9375" rx="2.5" ry="2.5" style="stroke:#3B82F6;stroke-width:1;" width="102.4473" x="498.79" y="1133.3594"/><text fill="#F8FAFC" font-family="Segoe UI" font-size="12" lengthAdjust="spacing" textLength="31.0781" x="534.4746" y="1151.498">App1</text><text fill="#F8FAFC" font-family="Segoe UI" font-size="12" lengthAdjust="spacing" textLength="88.4473" x="505.79" y="1165.4668">localhost:3000</text><rect fill="#1E293B" height="41.9375" rx="2.5" ry="2.5" style="stroke:#3B82F6;stroke-width:1;" width="102.4473" x="631.2373" y="51.6094"/><text fill="#F8FAFC" font-family="Segoe UI" font-size="12" lengthAdjust="spacing" textLength="58.7168" x="653.1025" y="69.748">MediaBox</text><text fill="#F8FAFC" font-family="Segoe UI" font-size="12" lengthAdjust="spacing" textLength="88.4473" x="638.2373" y="83.7168">localhost:8080</text><rect fill="#1E293B" height="41.9375" rx="2.5" ry="2.5" style="stroke:#3B82F6;stroke-width:1;" width="102.4473" x="631.2373" y="1133.3594"/><text fill="#F8FAFC" font-family="Segoe UI" font-size="12" lengthAdjust="spacing" textLength="58.7168" x="653.1025" y="1151.498">MediaBox</text><text fill="#F8FAFC" font-family="Segoe UI" font-size="12" lengthAdjust="spacing" textLength="88.4473" x="638.2373" y="1165.4668">localhost:8080</text><rect fill="#1E293B" height="152.8125" style="stroke:#334155;stroke-width:1;" width="10" x="246.6797" y="166.4844"/><rect fill="#1E293B" height="152.8125" style="stroke:#334155;stroke-width:1;" width="10" x="246.6797" y="372.2656"/><rect fill="#1E293B" height="208.6875" style="stroke:#334155;stroke-width:1;" width="10" x="246.6797" y="595.0156"/><rect fill="#1E293B" height="138.8438" style="stroke:#334155;stroke-width:1;" width="10" x="246.6797" y="873.6406"/><rect fill="#334155" height="3" style="stroke:#334155;stroke-width:1;" width="743.6846" x="5" y="124.5313"/><line style="stroke:#000000;stroke-width:0.5;" x1="5" x2="748.6846" y1="124.5313" y2="124.5313"/><line style="stroke:#000000;stroke-width:0.5;" x1="5" x2="748.6846" y1="127.5313" y2="127.5313"/><rect fill="#334155" height="21.9688" style="stroke:#000000;stroke-width:1;" width="150.6406" x="301.522" y="114.5469"/><text fill="#F8FAFC" font-family="Segoe UI" font-size="12" font-weight="bold" lengthAdjust="spacing" textLength="132.4629" x="307.522" y="129.6855">Path Prefix Routing</text><polygon fill="#94A3B8" points="234.6797,162.4844,244.6797,166.4844,234.6797,170.4844,238.6797,166.4844" style="stroke:#94A3B8;stroke-width:1;"/><line style="stroke:#94A3B8;stroke-width:1;" x1="69.4453" x2="240.6797" y1="166.4844" y2="166.4844"/><text fill="#94A3B8" font-family="Segoe UI" font-size="12" lengthAdjust="spacing" textLength="145.623" x="76.4453" y="161.6543">GET /__b/App1/api/users</text><line style="stroke:#94A3B8;stroke-width:1;" x1="256.6797" x2="298.6797" y1="222.3906" y2="222.3906"/><line style="stroke:#94A3B8;stroke-width:1;" x1="298.6797" x2="298.6797" y1="222.3906" y2="235.3906"/><line style="stroke:#94A3B8;stroke-width:1;" x1="257.6797" x2="298.6797" y1="235.3906" y2="235.3906"/><polygon fill="#94A3B8" points="267.6797,231.3906,257.6797,235.3906,267.6797,239.3906,263.6797,235.3906" style="stroke:#94A3B8;stroke-width:1;"/><text fill="#94A3B8" font-family="Segoe UI" font-size="12" lengthAdjust="spacing" textLength="145.0605" x="263.6797" y="189.623">Detect prefix: /__b/App1</text><text fill="#94A3B8" font-family="Segoe UI" font-size="12" lengthAdjust="spacing" textLength="104.707" x="263.6797" y="203.5918">Strip &#8594; /api/users</text><text fill="#94A3B8" font-family="Segoe UI" font-size="12" lengthAdjust="spacing" textLength="90.6738" x="263.6797" y="217.5605">Backend: App1</text><polygon fill="#94A3B8" points="538.0137,259.3594,548.0137,263.3594,538.0137,267.3594,542.0137,263.3594" style="stroke:#94A3B8;stroke-width:1;"/><line style="stroke:#94A3B8;stroke-width:1;" x1="256.6797" x2="544.0137" y1="263.3594" y2="263.3594"/><text fill="#94A3B8" font-family="Segoe UI" font-size="12" lengthAdjust="spacing" textLength="86.8418" x="263.6797" y="258.5293">GET /api/users</text><polygon fill="#94A3B8" points="267.6797,287.3281,257.6797,291.3281,267.6797,295.3281,263.6797,291.3281" style="stroke:#94A3B8;stroke-width:1;"/><line style="stroke:#94A3B8;stroke-width:1;stroke-dasharray:2.0,2.0;" x1="261.6797" x2="549.0137" y1="291.3281" y2="291.3281"/><text fill="#94A3B8" font-family="Segoe UI" font-size="12" lengthAdjust="spacing" textLength="110.707" x="273.6797" y="286.498">200 { users: [...] }</text><polygon fill="#94A3B8" points="80.4453,315.2969,70.4453,319.2969,80.4453,323.2969,76.4453,319.2969" style="stroke:#94A3B8;stroke-width:1;"/><line style="stroke:#94A3B8;stroke-width:1;stroke-dasharray:2.0,2.0;" x1="74.4453" x2="250.6797" y1="319.2969" y2="319.2969"/><text fill="#94A3B8" font-family="Segoe UI" font-size="12" lengthAdjust="spacing" textLength="110.707" x="86.4453" y="314.4668">200 { users: [...] }</text><polygon fill="#94A3B8" points="234.6797,368.2656,244.6797,372.2656,234.6797,376.2656,238.6797,372.2656" style="stroke:#94A3B8;stroke-width:1;"/><line style="stroke:#94A3B8;stroke-width:1;" x1="69.4453" x2="240.6797" y1="372.2656" y2="372.2656"/><text fill="#94A3B8" font-family="Segoe UI" font-size="12" lengthAdjust="spacing" textLength="143.0156" x="76.4453" y="367.4355">GET /__b/MediaBox/files</text><line style="stroke:#94A3B8;stroke-width:1;" x1="256.6797" x2="298.6797" y1="428.1719" y2="428.1719"/><line style="stroke:#94A3B8;stroke-width:1;" x1="298.6797" x2="298.6797" y1="428.1719" y2="441.1719"/><line style="stroke:#94A3B8;stroke-width:1;" x1="257.6797" x2="298.6797" y1="441.1719" y2="441.1719"/><polygon fill="#94A3B8" points="267.6797,437.1719,257.6797,441.1719,267.6797,445.1719,263.6797,441.1719" style="stroke:#94A3B8;stroke-width:1;"/><text fill="#94A3B8" font-family="Segoe UI" font-size="12" lengthAdjust="spacing" textLength="172.6992" x="263.6797" y="395.4043">Detect prefix: /__b/MediaBox</text><text fill="#94A3B8" font-family="Segoe UI" font-size="12" lengthAdjust="spacing" textLength="74.4609" x="263.6797" y="409.373">Strip &#8594; /files</text><text fill="#94A3B8" font-family="Segoe UI" font-size="12" lengthAdjust="spacing" textLength="118.3125" x="263.6797" y="423.3418">Backend: MediaBox</text><polygon fill="#94A3B8" points="670.4609,465.1406,680.4609,469.1406,670.4609,473.1406,674.4609,469.1406" style="stroke:#94A3B8;stroke-width:1;"/><line style="stroke:#94A3B8;stroke-width:1;" x1="256.6797" x2="676.4609" y1="469.1406" y2="469.1406"/><text fill="#94A3B8" font-family="Segoe UI" font-size="12" lengthAdjust="spacing" textLength="56.5957" x="263.6797" y="464.3105">GET /files</text><polygon fill="#94A3B8" points="267.6797,493.1094,257.6797,497.1094,267.6797,501.1094,263.6797,497.1094" style="stroke:#94A3B8;stroke-width:1;"/><line style="stroke:#94A3B8;stroke-width:1;stroke-dasharray:2.0,2.0;" x1="261.6797" x2="681.4609" y1="497.1094" y2="497.1094"/><text fill="#94A3B8" font-family="Segoe UI" font-size="12" lengthAdjust="spacing" textLength="94.3535" x="273.6797" y="492.2793">200 (file listing)</text><polygon fill="#94A3B8" points="80.4453,521.0781,70.4453,525.0781,80.4453,529.0781,76.4453,525.0781" style="stroke:#94A3B8;stroke-width:1;"/><line style="stroke:#94A3B8;stroke-width:1;stroke-dasharray:2.0,2.0;" x1="74.4453" x2="250.6797" y1="525.0781" y2="525.0781"/><text fill="#94A3B8" font-family="Segoe UI" font-size="12" lengthAdjust="spacing" textLength="94.3535" x="86.4453" y="520.248">200 (file listing)</text><rect fill="#334155" height="3" style="stroke:#334155;stroke-width:1;" width="743.6846" x="5" y="553.0625"/><line style="stroke:#000000;stroke-width:0.5;" x1="5" x2="748.6846" y1="553.0625" y2="553.0625"/><line style="stroke:#000000;stroke-width:0.5;" x1="5" x2="748.6846" y1="556.0625" y2="556.0625"/><rect fill="#334155" height="21.9688" style="stroke:#000000;stroke-width:1;" width="125.6504" x="314.0171" y="543.0781"/><text fill="#F8FAFC" font-family="Segoe UI" font-size="12" font-weight="bold" lengthAdjust="spacing" textLength="107.4727" x="320.0171" y="558.2168">HTML Rewriting</text><polygon fill="#94A3B8" points="234.6797,591.0156,244.6797,595.0156,234.6797,599.0156,238.6797,595.0156" style="stroke:#94A3B8;stroke-width:1;"/><line style="stroke:#94A3B8;stroke-width:1;" x1="69.4453" x2="240.6797" y1="595.0156" y2="595.0156"/><text fill="#94A3B8" font-family="Segoe UI" font-size="12" lengthAdjust="spacing" textLength="90.8496" x="76.4453" y="590.1855">GET /__b/App1/</text><polygon fill="#94A3B8" points="538.0137,618.9844,548.0137,622.9844,538.0137,626.9844,542.0137,622.9844" style="stroke:#94A3B8;stroke-width:1;"/><line style="stroke:#94A3B8;stroke-width:1;" x1="256.6797" x2="544.0137" y1="622.9844" y2="622.9844"/><text fill="#94A3B8" font-family="Segoe UI" font-size="12" lengthAdjust="spacing" textLength="32.0684" x="263.6797" y="618.1543">GET /</text><polygon fill="#94A3B8" points="267.6797,646.9531,257.6797,650.9531,267.6797,654.9531,263.6797,650.9531" style="stroke:#94A3B8;stroke-width:1;"/><line style="stroke:#94A3B8;stroke-width:1;stroke-dasharray:2.0,2.0;" x1="261.6797" x2="549.0137" y1="650.9531" y2="650.9531"/><text fill="#94A3B8" font-family="Segoe UI" font-size="12" lengthAdjust="spacing" textLength="81.9902" x="273.6797" y="646.123">200 text/html</text><line style="stroke:#94A3B8;stroke-width:1;" x1="256.6797" x2="298.6797" y1="762.7344" y2="762.7344"/><line style="stroke:#94A3B8;stroke-width:1;" x1="298.6797" x2="298.6797" y1="762.7344" y2="775.7344"/><line style="stroke:#94A3B8;stroke-width:1;" x1="257.6797" x2="298.6797" y1="775.7344" y2="775.7344"/><polygon fill="#94A3B8" points="267.6797,771.7344,257.6797,775.7344,267.6797,779.7344,263.6797,775.7344" style="stroke:#94A3B8;stroke-width:1;"/><text fill="#94A3B8" font-family="Segoe UI" font-size="12" font-weight="bold" lengthAdjust="spacing" textLength="99.1641" x="263.6797" y="674.0918">Rewrite HTML:</text><text fill="#94A3B8" font-family="Segoe UI" font-size="12" lengthAdjust="spacing" textLength="259.541" x="263.6797" y="688.0605">1. href="/about" &#8594; href="/__b/App1/about"</text><text fill="#94A3B8" font-family="Segoe UI" font-size="12" lengthAdjust="spacing" textLength="264.334" x="263.6797" y="702.0293">2. src="/main.js" &#8594; src="/__b/App1/main.js"</text><text fill="#94A3B8" font-family="Segoe UI" font-size="12" lengthAdjust="spacing" textLength="261.6328" x="263.6797" y="715.998">3. http://localhost:3000/api &#8594; /__b/App1/api</text><text fill="#94A3B8" font-family="Segoe UI" font-size="12" lengthAdjust="spacing" textLength="188.4844" x="263.6797" y="729.9668">4. Inject fetch/XHR prefix patch</text><text fill="#94A3B8" font-family="Segoe UI" font-size="12" lengthAdjust="spacing" textLength="161.1504" x="263.6797" y="743.9355">5. Inject webrtc-upgrade.js</text><text fill="#94A3B8" font-family="Segoe UI" font-size="12" lengthAdjust="spacing" textLength="201.2871" x="263.6797" y="757.9043">6. Inject backend "Switch" button</text><polygon fill="#94A3B8" points="80.4453,799.7031,70.4453,803.7031,80.4453,807.7031,76.4453,803.7031" style="stroke:#94A3B8;stroke-width:1;"/><line style="stroke:#94A3B8;stroke-width:1;stroke-dasharray:2.0,2.0;" x1="74.4453" x2="250.6797" y1="803.7031" y2="803.7031"/><text fill="#94A3B8" font-family="Segoe UI" font-size="12" lengthAdjust="spacing" textLength="128.0859" x="86.4453" y="798.873">200 (rewritten HTML)</text><rect fill="#334155" height="3" style="stroke:#334155;stroke-width:1;" width="743.6846" x="5" y="831.6875"/><line style="stroke:#000000;stroke-width:0.5;" x1="5" x2="748.6846" y1="831.6875" y2="831.6875"/><line style="stroke:#000000;stroke-width:0.5;" x1="5" x2="748.6846" y1="834.6875" y2="834.6875"/><rect fill="#334155" height="21.9688" style="stroke:#000000;stroke-width:1;" width="144.8223" x="304.4312" y="821.7031"/><text fill="#F8FAFC" font-family="Segoe UI" font-size="12" font-weight="bold" lengthAdjust="spacing" textLength="126.6445" x="310.4312" y="836.8418">Redirect Rewriting</text><polygon fill="#94A3B8" points="234.6797,869.6406,244.6797,873.6406,234.6797,877.6406,238.6797,873.6406" style="stroke:#94A3B8;stroke-width:1;"/><line style="stroke:#94A3B8;stroke-width:1;" x1="69.4453" x2="240.6797" y1="873.6406" y2="873.6406"/><text fill="#94A3B8" font-family="Segoe UI" font-size="12" lengthAdjust="spacing" textLength="126.457" x="76.4453" y="868.8105">POST /__b/App1/form</text><polygon fill="#94A3B8" points="538.0137,897.6094,548.0137,901.6094,538.0137,905.6094,542.0137,901.6094" style="stroke:#94A3B8;stroke-width:1;"/><line style="stroke:#94A3B8;stroke-width:1;" x1="256.6797" x2="544.0137" y1="901.6094" y2="901.6094"/><text fill="#94A3B8" font-family="Segoe UI" font-size="12" lengthAdjust="spacing" textLength="67.6758" x="263.6797" y="896.7793">POST /form</text><polygon fill="#94A3B8" points="267.6797,925.5781,257.6797,929.5781,267.6797,933.5781,263.6797,929.5781" style="stroke:#94A3B8;stroke-width:1;"/><line style="stroke:#94A3B8;stroke-width:1;stroke-dasharray:2.0,2.0;" x1="261.6797" x2="549.0137" y1="929.5781" y2="929.5781"/><text fill="#94A3B8" font-family="Segoe UI" font-size="12" lengthAdjust="spacing" textLength="153.2754" x="273.6797" y="924.748">302 Location: /dashboard</text><line style="stroke:#94A3B8;stroke-width:1;" x1="256.6797" x2="298.6797" y1="971.5156" y2="971.5156"/><line style="stroke:#94A3B8;stroke-width:1;" x1="298.6797" x2="298.6797" y1="971.5156" y2="984.5156"/><line style="stroke:#94A3B8;stroke-width:1;" x1="257.6797" x2="298.6797" y1="984.5156" y2="984.5156"/><polygon fill="#94A3B8" points="267.6797,980.5156,257.6797,984.5156,267.6797,988.5156,263.6797,984.5156" style="stroke:#94A3B8;stroke-width:1;"/><text fill="#94A3B8" font-family="Segoe UI" font-size="12" lengthAdjust="spacing" textLength="100.6348" x="263.6797" y="952.7168">Rewrite redirect:</text><text fill="#94A3B8" font-family="Segoe UI" font-size="12" lengthAdjust="spacing" textLength="211.9336" x="263.6797" y="966.6855">/dashboard &#8594; /__b/App1/dashboard</text><polygon fill="#94A3B8" points="80.4453,1008.4844,70.4453,1012.4844,80.4453,1016.4844,76.4453,1012.4844" style="stroke:#94A3B8;stroke-width:1;"/><line style="stroke:#94A3B8;stroke-width:1;stroke-dasharray:2.0,2.0;" x1="74.4453" x2="250.6797" y1="1012.4844" y2="1012.4844"/><text fill="#94A3B8" font-family="Segoe UI" font-size="12" lengthAdjust="spacing" textLength="153.2344" x="86.4453" y="1007.6543">302 /__b/App1/dashboard</text><rect fill="#334155" height="3" style="stroke:#334155;stroke-width:1;" width="743.6846" x="5" y="1040.4688"/><line style="stroke:#000000;stroke-width:0.5;" x1="5" x2="748.6846" y1="1040.4688" y2="1040.4688"/><line style="stroke:#000000;stroke-width:0.5;" x1="5" x2="748.6846" y1="1043.4688" y2="1043.4688"/><rect fill="#334155" height="21.9688" style="stroke:#000000;stroke-width:1;" width="206.8613" x="273.4116" y="1030.4844"/><text fill="#F8FAFC" font-family="Segoe UI" font-size="12" font-weight="bold" lengthAdjust="spacing" textLength="188.6836" x="279.4116" y="1045.623">Backend Resolution Priority</text><path d="M10,1067.4531 L10,1118.4531 L311,1118.4531 L311,1077.4531 L301,1067.4531 L10,1067.4531 " fill="#334155" style="stroke:#334155;stroke-width:1;"/><path d="M301,1067.4531 L301,1077.4531 L311,1077.4531 L301,1067.4531 " fill="#334155" style="stroke:#334155;stroke-width:1;"/><text fill="#F8FAFC" font-family="Segoe UI" font-size="12" lengthAdjust="spacing" textLength="11.4492" x="16" y="1083.5918">1.</text><text fill="#F8FAFC" font-family="Segoe UI" font-size="12" font-weight="bold" lengthAdjust="spacing" textLength="91.1309" x="31.2637" y="1083.5918">/__b/&lt;name&gt;/</text><text fill="#F8FAFC" font-family="Segoe UI" font-size="12" lengthAdjust="spacing" textLength="170.4844" x="126.209" y="1083.5918">path prefix (highest priority)</text><text fill="#F8FAFC" font-family="Segoe UI" font-size="12" lengthAdjust="spacing" textLength="11.4492" x="16" y="1097.5605">2.</text><text fill="#F8FAFC" font-family="Segoe UI" font-size="12" font-weight="bold" lengthAdjust="spacing" textLength="99.1582" x="31.2637" y="1097.5605">x-waf-backend</text><text fill="#F8FAFC" font-family="Segoe UI" font-size="12" lengthAdjust="spacing" textLength="42.2754" x="134.2363" y="1097.5605">header</text><text fill="#F8FAFC" font-family="Segoe UI" font-size="12" lengthAdjust="spacing" textLength="11.4492" x="16" y="1111.5293">3.</text><text fill="#F8FAFC" font-family="Segoe UI" font-size="12" font-weight="bold" lengthAdjust="spacing" textLength="49.8105" x="31.2637" y="1111.5293">Default</text><text fill="#F8FAFC" font-family="Segoe UI" font-size="12" lengthAdjust="spacing" textLength="155.8242" x="84.8887" y="1111.5293">(first configured backend)</text><!--SRC=[bLRRRjj647tdLqpL5rk8H8co7KUe0jXrSm7ir90I941O14joA6v2xJBBfQKqzci-89-OByaiRo9boaqV14XxpjpEcINrcuvmXP34Z0jBSnqZN6MnveDpvdz24S0rqn7zI360kSmq5qlBIZznaJ35Ll3L0l28kLGo4y6VCfOAVX-5uySE8oJ0a56oPrBe4WfFGnRwRUWLemPw2rnAX3SlUsrmmVz563jqkC3F6GeVBtb87u7dKWMeohoJoT7u-BYBjTlS69qd4u-OrqnfxlE42Vrhf5OzxzG9Jzg4hZ7Fb9Bhyl394QEmwh31he5NKZ_GS8vs3csGhkgL6CyfNx8_SPlseAmN_8OJV2_NFkBzhkuiAzbg1hrpqY95rGEMWbTyhrjh4T-UFODh9JTVSkgQXTsqioGPkoAMFeiZcUhfP3GQvH6CWEwGAmmuEvURPjZfwBGES-emQpRBBmGrWY7VL3S2PZFBgfeVFCsRcyBplrw3_U63PvkMR9PmEoCyjPYl-GtJQ6YMeTOH5wZHrv3aoQVRO5SijE89_FZs7RQ9N57UqIaOKfKgdxEitYXgJWTr9MSqWg-GGrDuFnmE_u6x8W5Hgadsq09iJM3Ttju-D7sbhXto6F_lz5jh6WhaYHhJLwI60axLGLdKdBIdFp08n3mr1XxkcNs7j3ivRSEBrrUNCCUruh-w29qAD4thyahZHjkHNiLMMxD-lwYDUIFJVjyLuo549E6iPpEFrhENQrQURBSnXrpX325LFY4hUluFFwO5kpYgoHNcYWdbrZgPsdRxWfb5AxnfxhihZeRmKdmqheQe_SX-zs9U-Wi9emDN7DUCDNfA-uCiMIeM8DLpnKaDUkNRgBTOSuhhWPTfBOMrppULgw9HvBfqEZUdhL4czt-uT_ttecbVADNg8GiBUi5g-pWPEN19icak1QrtmDB8aqm5EvPMXggolwahjjmTaNTpj8GmzRge7LfKB_ivfZBEJ8FqXEEI-lYIYoBe1GFoXjAMwHyL3-3wiKzBr-_dnVuGz3f_QlVxnk6eSliWuii8KtExYxI75EIOeCs0CWrAVoagGd9V4Jenw4NnJu3EwIegYlUb2Fao8t6gdJYqJEUcG-id]--></g></svg>