<svg xmlns="http://www.w3.org/2000/svg" xmlns:xlink="http://www.w3.org/1999/xlink" contentStyleType="text/css" height="1213px" preserveAspectRatio="none" style="width:932px;height:1213px;background:#0F172A;" version="1.1" viewBox="0 0 932 1213" width="932px" zoomAndPan="magnify"><title>OIDC Login Flow (through HTTP Relay)</title><defs/><g><rect fill="#0F172A" height="1213" style="stroke:none;stroke-width:1;" width="932" x="0" y="0"/><text fill="#F8FAFC" font-family="Segoe UI" font-size="22" font-weight="bold" lengthAdjust="spacing" textLength="478.1455" x="225.6299" y="35.4209">OIDC Login Flow (through HTTP Relay)</text><rect fill="#1E293B" height="222.6563" style="stroke:#334155;stroke-width:1;" width="10" x="599.2539" y="835.7656"/><line style="stroke:#334155;stroke-width:1;" x1="51" x2="51" y1="94.5469" y2="1166.2969"/><line style="stroke:#334155;stroke-width:1;" x1="331.6006" x2="331.6006" y1="94.5469" y2="1166.2969"/><line style="stroke:#334155;stroke-width:1;" x1="603.7656" x2="603.7656" y1="94.5469" y2="1166.2969"/><line style="stroke:#334155;stroke-width:1;" x1="873.3838" x2="873.3838" y1="94.5469" y2="1166.2969"/><rect fill="#1E293B" height="27.9688" rx="2.5" ry="2.5" style="stroke:#3B82F6;stroke-width:1;" width="62.8906" x="20" y="65.5781"/><text fill="#F8FAFC" font-family="Segoe UI" font-size="12" lengthAdjust="spacing" textLength="48.8906" x="27" y="83.7168">Browser</text><rect fill="#1E293B" height="27.9688" rx="2.5" ry="2.5" style="stroke:#3B82F6;stroke-width:1;" width="62.8906" x="20" y="1165.2969"/><text fill="#F8FAFC" font-family="Segoe UI" font-size="12" lengthAdjust="spacing" textLength="48.8906" x="27" y="1183.4355">Browser</text><rect fill="#1E293B" height="41.9375" rx="2.5" ry="2.5" style="stroke:#3B82F6;stroke-width:1;" width="89.873" x="287.6006" y="51.6094"/><text fill="#F8FAFC" font-family="Segoe UI" font-size="12" lengthAdjust="spacing" textLength="75.873" x="294.6006" y="69.748">STUN Server</text><text fill="#F8FAFC" font-family="Segoe UI" font-size="12" lengthAdjust="spacing" textLength="39.4688" x="312.8027" y="83.7168">(relay)</text><rect fill="#1E293B" height="41.9375" rx="2.5" ry="2.5" style="stroke:#3B82F6;stroke-width:1;" width="89.873" x="287.6006" y="1165.2969"/><text fill="#F8FAFC" font-family="Segoe UI" font-size="12" lengthAdjust="spacing" textLength="75.873" x="294.6006" y="1183.4355">STUN Server</text><text fill="#F8FAFC" font-family="Segoe UI" font-size="12" lengthAdjust="spacing" textLength="39.4688" x="312.8027" y="1197.4043">(relay)</text><rect fill="#1E293B" height="27.9688" rx="2.5" ry="2.5" style="stroke:#3B82F6;stroke-width:1;" width="40.9766" x="583.7656" y="65.5781"/><text fill="#F8FAFC" font-family="Segoe UI" font-size="12" lengthAdjust="spacing" textLength="26.9766" x="590.7656" y="83.7168">WAF</text><rect fill="#1E293B" height="27.9688" rx="2.5" ry="2.5" style="stroke:#3B82F6;stroke-width:1;" width="40.9766" x="583.7656" y="1165.2969"/><text fill="#F8FAFC" font-family="Segoe UI" font-size="12" lengthAdjust="spacing" textLength="26.9766" x="590.7656" y="1183.4355">WAF</text><rect fill="#1E293B" height="27.9688" rx="2.5" ry="2.5" style="stroke:#3B82F6;stroke-width:1;" width="73.0215" x="837.3838" y="65.5781"/><text fill="#F8FAFC" font-family="Segoe UI" font-size="12" lengthAdjust="spacing" textLength="59.0215" x="844.3838" y="83.7168">TideCloak</text><rect fill="#1E293B" height="27.9688" rx="2.5" ry="2.5" style="stroke:#3B82F6;stroke-width:1;" width="73.0215" x="837.3838" y="1165.2969"/><text fill="#F8FAFC" font-family="Segoe UI" font-size="12" lengthAdjust="spacing" textLength="59.0215" x="844.3838" y="1183.4355">TideCloak</text><rect fill="#1E293B" height="222.6563" style="stroke:#334155;stroke-width:1;" width="10" x="599.2539" y="835.7656"/><rect fill="#334155" height="3" style="stroke:#334155;stroke-width:1;" width="920.4053" x="5" y="124.5313"/><line style="stroke:#000000;stroke-width:0.5;" x1="5" x2="925.4053" y1="124.5313" y2="124.5313"/><line style="stroke:#000000;stroke-width:0.5;" x1="5" x2="925.4053" y1="127.5313" y2="127.5313"/><rect fill="#334155" height="21.9688" style="stroke:#000000;stroke-width:1;" width="134.6387" x="397.8833" y="114.5469"/><text fill="#F8FAFC" font-family="Segoe UI" font-size="12" font-weight="bold" lengthAdjust="spacing" textLength="116.4609" x="403.8833" y="129.6855">Redirect to Login</text><polygon fill="#94A3B8" points="320.5371,162.4844,330.5371,166.4844,320.5371,170.4844,324.5371,166.4844" style="stroke:#94A3B8;stroke-width:1;"/><line style="stroke:#94A3B8;stroke-width:1;" x1="51.4453" x2="326.5371" y1="166.4844" y2="166.4844"/><text fill="#94A3B8" font-family="Segoe UI" font-size="12" lengthAdjust="spacing" textLength="92.6133" x="58.4453" y="161.6543">GET /auth/login</text><polygon fill="#94A3B8" points="592.2539,190.4531,602.2539,194.4531,592.2539,198.4531,596.2539,194.4531" style="stroke:#94A3B8;stroke-width:1;"/><line style="stroke:#94A3B8;stroke-width:1;" x1="332.5371" x2="598.2539" y1="194.4531" y2="194.4531"/><text fill="#94A3B8" font-family="Segoe UI" font-size="12" lengthAdjust="spacing" textLength="147.1348" x="339.5371" y="189.623">WS: http_request (relay)</text><line style="stroke:#94A3B8;stroke-width:1;" x1="604.2539" x2="646.2539" y1="236.3906" y2="236.3906"/><line style="stroke:#94A3B8;stroke-width:1;" x1="646.2539" x2="646.2539" y1="236.3906" y2="249.3906"/><line style="stroke:#94A3B8;stroke-width:1;" x1="605.2539" x2="646.2539" y1="249.3906" y2="249.3906"/><polygon fill="#94A3B8" points="615.2539,245.3906,605.2539,249.3906,615.2539,253.3906,611.2539,249.3906" style="stroke:#94A3B8;stroke-width:1;"/><text fill="#94A3B8" font-family="Segoe UI" font-size="12" lengthAdjust="spacing" textLength="151.6641" x="611.2539" y="217.5918">Build TideCloak auth URL</text><text fill="#94A3B8" font-family="Segoe UI" font-size="12" lengthAdjust="spacing" textLength="176.0449" x="611.2539" y="231.5605">with state={nonce, redirect}</text><polygon fill="#94A3B8" points="343.5371,287.3281,333.5371,291.3281,343.5371,295.3281,339.5371,291.3281" style="stroke:#94A3B8;stroke-width:1;"/><line style="stroke:#94A3B8;stroke-width:1;stroke-dasharray:2.0,2.0;" x1="337.5371" x2="603.2539" y1="291.3281" y2="291.3281"/><text fill="#94A3B8" font-family="Segoe UI" font-size="12" lengthAdjust="spacing" textLength="139.459" x="349.5371" y="272.5293">WS: http_response 302</text><text fill="#94A3B8" font-family="Segoe UI" font-size="12" lengthAdjust="spacing" textLength="247.7168" x="349.5371" y="286.498">Location: /realms/.../openid-connect/auth</text><polygon fill="#94A3B8" points="62.4453,315.2969,52.4453,319.2969,62.4453,323.2969,58.4453,319.2969" style="stroke:#94A3B8;stroke-width:1;"/><line style="stroke:#94A3B8;stroke-width:1;stroke-dasharray:2.0,2.0;" x1="56.4453" x2="331.5371" y1="319.2969" y2="319.2969"/><text fill="#94A3B8" font-family="Segoe UI" font-size="12" lengthAdjust="spacing" textLength="57.6387" x="68.4453" y="314.4668">HTTP 302</text><rect fill="#334155" height="3" style="stroke:#334155;stroke-width:1;" width="920.4053" x="5" y="347.2813"/><line style="stroke:#000000;stroke-width:0.5;" x1="5" x2="925.4053" y1="347.2813" y2="347.2813"/><line style="stroke:#000000;stroke-width:0.5;" x1="5" x2="925.4053" y1="350.2813" y2="350.2813"/><rect fill="#334155" height="21.9688" style="stroke:#000000;stroke-width:1;" width="285.4355" x="322.4849" y="337.2969"/><text fill="#F8FAFC" font-family="Segoe UI" font-size="12" font-weight="bold" lengthAdjust="spacing" textLength="267.2578" x="328.4849" y="352.4355">TideCloak Login (proxied through WAF)</text><polygon fill="#94A3B8" points="320.5371,385.2344,330.5371,389.2344,320.5371,393.2344,324.5371,389.2344" style="stroke:#94A3B8;stroke-width:1;"/><line style="stroke:#94A3B8;stroke-width:1;" x1="51.4453" x2="326.5371" y1="389.2344" y2="389.2344"/><text fill="#94A3B8" font-family="Segoe UI" font-size="12" lengthAdjust="spacing" textLength="197.5898" x="58.4453" y="384.4043">GET /realms/.../auth?client_id=...</text><polygon fill="#94A3B8" points="592.2539,413.2031,602.2539,417.2031,592.2539,421.2031,596.2539,417.2031" style="stroke:#94A3B8;stroke-width:1;"/><line style="stroke:#94A3B8;stroke-width:1;" x1="332.5371" x2="598.2539" y1="417.2031" y2="417.2031"/><text fill="#94A3B8" font-family="Segoe UI" font-size="12" lengthAdjust="spacing" textLength="147.1348" x="339.5371" y="412.373">WS: http_request (relay)</text><polygon fill="#94A3B8" points="861.8945,441.1719,871.8945,445.1719,861.8945,449.1719,865.8945,445.1719" style="stroke:#94A3B8;stroke-width:1;"/><line style="stroke:#94A3B8;stroke-width:1;" x1="604.2539" x2="867.8945" y1="445.1719" y2="445.1719"/><text fill="#94A3B8" font-family="Segoe UI" font-size="12" lengthAdjust="spacing" textLength="161.3848" x="611.2539" y="440.3418">Proxy: GET /realms/.../auth</text><polygon fill="#94A3B8" points="615.2539,469.1406,605.2539,473.1406,615.2539,477.1406,611.2539,473.1406" style="stroke:#94A3B8;stroke-width:1;"/><line style="stroke:#94A3B8;stroke-width:1;stroke-dasharray:2.0,2.0;" x1="609.2539" x2="872.8945" y1="473.1406" y2="473.1406"/><text fill="#94A3B8" font-family="Segoe UI" font-size="12" lengthAdjust="spacing" textLength="103.5762" x="621.2539" y="468.3105">Login page HTML</text><polygon fill="#94A3B8" points="343.5371,497.1094,333.5371,501.1094,343.5371,505.1094,339.5371,501.1094" style="stroke:#94A3B8;stroke-width:1;"/><line style="stroke:#94A3B8;stroke-width:1;stroke-dasharray:2.0,2.0;" x1="337.5371" x2="603.2539" y1="501.1094" y2="501.1094"/><text fill="#94A3B8" font-family="Segoe UI" font-size="12" lengthAdjust="spacing" textLength="139.459" x="349.5371" y="496.2793">WS: http_response 200</text><polygon fill="#94A3B8" points="62.4453,525.0781,52.4453,529.0781,62.4453,533.0781,58.4453,529.0781" style="stroke:#94A3B8;stroke-width:1;"/><line style="stroke:#94A3B8;stroke-width:1;stroke-dasharray:2.0,2.0;" x1="56.4453" x2="331.5371" y1="529.0781" y2="529.0781"/><text fill="#94A3B8" font-family="Segoe UI" font-size="12" lengthAdjust="spacing" textLength="66.3691" x="68.4453" y="524.248">Login page</text><line style="stroke:#94A3B8;stroke-width:1;" x1="51.4453" x2="93.4453" y1="557.0469" y2="557.0469"/><line style="stroke:#94A3B8;stroke-width:1;" x1="93.4453" x2="93.4453" y1="557.0469" y2="570.0469"/><line style="stroke:#94A3B8;stroke-width:1;" x1="52.4453" x2="93.4453" y1="570.0469" y2="570.0469"/><polygon fill="#94A3B8" points="62.4453,566.0469,52.4453,570.0469,62.4453,574.0469,58.4453,570.0469" style="stroke:#94A3B8;stroke-width:1;"/><text fill="#94A3B8" font-family="Segoe UI" font-size="12" lengthAdjust="spacing" textLength="139.7402" x="58.4453" y="552.2168">User enters credentials</text><polygon fill="#94A3B8" points="320.5371,594.0156,330.5371,598.0156,320.5371,602.0156,324.5371,598.0156" style="stroke:#94A3B8;stroke-width:1;"/><line style="stroke:#94A3B8;stroke-width:1;" x1="51.4453" x2="326.5371" y1="598.0156" y2="598.0156"/><text fill="#94A3B8" font-family="Segoe UI" font-size="12" lengthAdjust="spacing" textLength="257.0918" x="58.4453" y="593.1855">POST /realms/.../login-actions/authenticate</text><polygon fill="#94A3B8" points="592.2539,621.9844,602.2539,625.9844,592.2539,629.9844,596.2539,625.9844" style="stroke:#94A3B8;stroke-width:1;"/><line style="stroke:#94A3B8;stroke-width:1;" x1="332.5371" x2="598.2539" y1="625.9844" y2="625.9844"/><text fill="#94A3B8" font-family="Segoe UI" font-size="12" lengthAdjust="spacing" textLength="147.1348" x="339.5371" y="621.1543">WS: http_request (relay)</text><polygon fill="#94A3B8" points="861.8945,649.9531,871.8945,653.9531,861.8945,657.9531,865.8945,653.9531" style="stroke:#94A3B8;stroke-width:1;"/><line style="stroke:#94A3B8;stroke-width:1;" x1="604.2539" x2="867.8945" y1="653.9531" y2="653.9531"/><text fill="#94A3B8" font-family="Segoe UI" font-size="12" lengthAdjust="spacing" textLength="153.3516" x="611.2539" y="649.123">Proxy: POST authenticate</text><polygon fill="#94A3B8" points="615.2539,677.9219,605.2539,681.9219,615.2539,685.9219,611.2539,681.9219" style="stroke:#94A3B8;stroke-width:1;"/><line style="stroke:#94A3B8;stroke-width:1;stroke-dasharray:2.0,2.0;" x1="609.2539" x2="872.8945" y1="681.9219" y2="681.9219"/><text fill="#94A3B8" font-family="Segoe UI" font-size="12" lengthAdjust="spacing" textLength="177.0762" x="621.2539" y="677.0918">302 /auth/callback?code=xyz</text><polygon fill="#94A3B8" points="343.5371,705.8906,333.5371,709.8906,343.5371,713.8906,339.5371,709.8906" style="stroke:#94A3B8;stroke-width:1;"/><line style="stroke:#94A3B8;stroke-width:1;stroke-dasharray:2.0,2.0;" x1="337.5371" x2="603.2539" y1="709.8906" y2="709.8906"/><text fill="#94A3B8" font-family="Segoe UI" font-size="12" lengthAdjust="spacing" textLength="139.459" x="349.5371" y="705.0605">WS: http_response 302</text><polygon fill="#94A3B8" points="62.4453,733.8594,52.4453,737.8594,62.4453,741.8594,58.4453,737.8594" style="stroke:#94A3B8;stroke-width:1;"/><line style="stroke:#94A3B8;stroke-width:1;stroke-dasharray:2.0,2.0;" x1="56.4453" x2="331.5371" y1="737.8594" y2="737.8594"/><text fill="#94A3B8" font-family="Segoe UI" font-size="12" lengthAdjust="spacing" textLength="57.6387" x="68.4453" y="733.0293">HTTP 302</text><rect fill="#334155" height="3" style="stroke:#334155;stroke-width:1;" width="920.4053" x="5" y="765.8438"/><line style="stroke:#000000;stroke-width:0.5;" x1="5" x2="925.4053" y1="765.8438" y2="765.8438"/><line style="stroke:#000000;stroke-width:0.5;" x1="5" x2="925.4053" y1="768.8438" y2="768.8438"/><rect fill="#334155" height="21.9688" style="stroke:#000000;stroke-width:1;" width="121.0977" x="404.6538" y="755.8594"/><text fill="#F8FAFC" font-family="Segoe UI" font-size="12" font-weight="bold" lengthAdjust="spacing" textLength="102.9199" x="410.6538" y="770.998">Code Exchange</text><polygon fill="#94A3B8" points="320.5371,803.7969,330.5371,807.7969,320.5371,811.7969,324.5371,807.7969" style="stroke:#94A3B8;stroke-width:1;"/><line style="stroke:#94A3B8;stroke-width:1;" x1="51.4453" x2="326.5371" y1="807.7969" y2="807.7969"/><text fill="#94A3B8" font-family="Segoe UI" font-size="12" lengthAdjust="spacing" textLength="178.3828" x="58.4453" y="802.9668">GET /auth/callback?code=xyz</text><polygon fill="#94A3B8" points="587.2539,831.7656,597.2539,835.7656,587.2539,839.7656,591.2539,835.7656" style="stroke:#94A3B8;stroke-width:1;"/><line style="stroke:#94A3B8;stroke-width:1;" x1="332.5371" x2="593.2539" y1="835.7656" y2="835.7656"/><text fill="#94A3B8" font-family="Segoe UI" font-size="12" lengthAdjust="spacing" textLength="147.1348" x="339.5371" y="830.9355">WS: http_request (relay)</text><polygon fill="#94A3B8" points="861.8945,887.6719,871.8945,891.6719,861.8945,895.6719,865.8945,891.6719" style="stroke:#94A3B8;stroke-width:1;"/><line style="stroke:#94A3B8;stroke-width:1;" x1="609.2539" x2="867.8945" y1="891.6719" y2="891.6719"/><text fill="#94A3B8" font-family="Segoe UI" font-size="12" lengthAdjust="spacing" textLength="133.9453" x="616.2539" y="858.9043">POST /realms/.../token</text><text fill="#94A3B8" font-family="Segoe UI" font-size="12" lengthAdjust="spacing" textLength="202.5996" x="616.2539" y="872.873">{ grant_type: authorization_code,</text><text fill="#94A3B8" font-family="Segoe UI" font-size="12" lengthAdjust="spacing" textLength="68.748" x="623.8828" y="886.8418">code: xyz }</text><polygon fill="#94A3B8" points="620.2539,915.6406,610.2539,919.6406,620.2539,923.6406,616.2539,919.6406" style="stroke:#94A3B8;stroke-width:1;"/><line style="stroke:#94A3B8;stroke-width:1;stroke-dasharray:2.0,2.0;" x1="614.2539" x2="872.8945" y1="919.6406" y2="919.6406"/><text fill="#94A3B8" font-family="Segoe UI" font-size="12" lengthAdjust="spacing" textLength="193.6465" x="626.2539" y="914.8105">{ access_token, refresh_token }</text><line style="stroke:#94A3B8;stroke-width:1;" x1="609.2539" x2="651.2539" y1="975.5469" y2="975.5469"/><line style="stroke:#94A3B8;stroke-width:1;" x1="651.2539" x2="651.2539" y1="975.5469" y2="988.5469"/><line style="stroke:#94A3B8;stroke-width:1;" x1="610.2539" x2="651.2539" y1="988.5469" y2="988.5469"/><polygon fill="#94A3B8" points="620.2539,984.5469,610.2539,988.5469,620.2539,992.5469,616.2539,988.5469" style="stroke:#94A3B8;stroke-width:1;"/><text fill="#94A3B8" font-family="Segoe UI" font-size="12" lengthAdjust="spacing" textLength="72.7617" x="616.2539" y="942.7793">Set cookies:</text><text fill="#94A3B8" font-family="Segoe UI" font-size="12" lengthAdjust="spacing" textLength="174.9609" x="623.8828" y="956.748">waf_access = JWT (HttpOnly)</text><text fill="#94A3B8" font-family="Segoe UI" font-size="12" lengthAdjust="spacing" textLength="228.0117" x="623.8828" y="970.7168">waf_refresh = token (HttpOnly, Strict)</text><polygon fill="#94A3B8" points="343.5371,1054.4219,333.5371,1058.4219,343.5371,1062.4219,339.5371,1058.4219" style="stroke:#94A3B8;stroke-width:1;"/><line style="stroke:#94A3B8;stroke-width:1;stroke-dasharray:2.0,2.0;" x1="337.5371" x2="603.2539" y1="1058.4219" y2="1058.4219"/><text fill="#94A3B8" font-family="Segoe UI" font-size="12" lengthAdjust="spacing" textLength="139.459" x="349.5371" y="1011.6855">WS: http_response 302</text><text fill="#94A3B8" font-family="Segoe UI" font-size="12" lengthAdjust="spacing" textLength="154.6816" x="349.5371" y="1025.6543">Location: / (original page)</text><text fill="#94A3B8" font-family="Segoe UI" font-size="12" lengthAdjust="spacing" textLength="161.9473" x="349.5371" y="1039.623">Set-Cookie: waf_access=...</text><text fill="#94A3B8" font-family="Segoe UI" font-size="12" lengthAdjust="spacing" textLength="164.2266" x="349.5371" y="1053.5918">Set-Cookie: waf_refresh=...</text><polygon fill="#94A3B8" points="62.4453,1082.3906,52.4453,1086.3906,62.4453,1090.3906,58.4453,1086.3906" style="stroke:#94A3B8;stroke-width:1;"/><line style="stroke:#94A3B8;stroke-width:1;stroke-dasharray:2.0,2.0;" x1="56.4453" x2="331.5371" y1="1086.3906" y2="1086.3906"/><text fill="#94A3B8" font-family="Segoe UI" font-size="12" lengthAdjust="spacing" textLength="120.5215" x="68.4453" y="1081.5605">HTTP 302 + cookies</text><path d="M17,1099.3906 L17,1150.3906 L636,1150.3906 L636,1109.3906 L626,1099.3906 L17,1099.3906 " fill="#1E293B" style="stroke:#334155;stroke-width:1;"/><path d="M626,1099.3906 L626,1109.3906 L636,1109.3906 L626,1099.3906 " fill="#1E293B" style="stroke:#334155;stroke-width:1;"/><text fill="#F8FAFC" font-family="Segoe UI" font-size="12" lengthAdjust="spacing" textLength="310.1719" x="167.2852" y="1115.5293">All subsequent requests include waf_access cookie.</text><text fill="#F8FAFC" font-family="Segoe UI" font-size="12" lengthAdjust="spacing" textLength="221.7598" x="167.2852" y="1129.498">WAF validates JWT on every request.</text><text fill="#F8FAFC" font-family="Segoe UI" font-size="12" lengthAdjust="spacing" textLength="304.3477" x="167.2852" y="1143.4668">Transparent refresh via waf_refresh when expired.</text><!--SRC=[fLNHRXex47tVhvZclX0rG4BQUzkLQDNGvhOLJQ92b1SaPBopOE7OUsq38L7-lMFlBh1bbQIw3r6Cv_ZCcUCPxoitmrk4J3AX8YUSHBZyzha7VJqL2iwbNa73pOnUJ6VmTJYyWfyesVemYknSg8mPTWiF4S24yVcKK2hfQQaD_7MSdlpJOHH9C6KBwSwrSaKeVPUob5T35un470nmgX6klnrKWmDnZt3IeSq1_hT0nR4lKlfJUAPDWgRWFJrzS_BsRHtgTt4ds7b_EY7a5JDES94nvLu6gkIRlEkaVrS1TML-CaQlYittRnWTApTtq9l0XNPF20xHsg9zf2vxQSPdiHHqR8zwpxK2kC_r64NPjb8uEACAB9e3O1Oc-NgZj08S3AylYDuiqOnKmuG62gUiMwZw8pUVpWDYnT9wm90qzgHcym1pV8EAkbtgqKGOv0wSBXgvsusYKcFpGvuuXd-_3A7D5cxMbXuLXMqA-wmnt0nYc3cNZOrtnZeef4S-l46TBOHCO2C7F1rS_-oFr4hGoZhciFkWD3bx1AOGzfXpR9NivBAPLXRXzBWpKdtDcHDQnT0soEIjRRTQhRREK8caoRLIn1KAAAGJOLbbd8yhqGHBjW9pGngPqNS24oY7cnm_VCgcdVm-uKSk1Iet5acNjlxGERgk6Av8mBgUF290SyEM2yxO5Aca7_tdhUiS7zVviUMf5Ba5NFj_L1GQ2vokYfQ2ILjdoTNbe2exD52JSNzRDXJXJzFjuV_m9cIfS5MCeRijsfSpAVqJ_97h1Bjtw_iNzTUpJTCZDlXonsTCaVdFpT2-Y1TMxbrRKdKU5rLz-Drcf-UeHke1feQUWR5RPnW7XxGHzs5KnZxxqKW1-4KCf0CUgxuz0ECShHq7DZ-LATaootyIk3hW0tH4fUS2RUnfQNUSduSkVByPGkCh5NMfvFgm31U45CyfDuWZ63WZk3kC_lm1W0RLI4t6PEXXIaRAchsWBDvHvUTnFrP82iEQODNn9ze0NfUrHv6YBmneUiHBt54uJjyoAS4k9ZPyG1mKrsj1A2uN2UuwbfErw12zDx1aKYGammOVjG8azdL9u553kcPB3t_Ecxkw5ApYyeh60_0kevSrQKMe4l1Aery0]--></g></svg>