<svg xmlns="http://www.w3.org/2000/svg" xmlns:xlink="http://www.w3.org/1999/xlink" contentStyleType="text/css" height="470px" preserveAspectRatio="none" style="width:1057px;height:470px;background:#0F172A;" version="1.1" viewBox="0 0 1057 470" width="1057px" zoomAndPan="magnify"><title>KeyleSSH &#8212; System Overview</title><defs/><g><rect fill="#0F172A" height="470" style="stroke:none;stroke-width:1;" width="1057" x="0" y="0"/><text fill="#F8FAFC" font-family="Segoe UI" font-size="22" font-weight="bold" lengthAdjust="spacing" textLength="371.4326" x="337.2837" y="35.4209">KeyleSSH &#8212; System Overview</text><!--cluster stun--><g id="cluster_stun"><path d="M21.5,235.1094 L175.8784,235.1094 A3.75,3.75 0 0 1 178.3784,237.6094 L185.3784,256.2422 L729.5,256.2422 A2.5,2.5 0 0 1 732,258.7422 L732,459.1094 A2.5,2.5 0 0 1 729.5,461.6094 L21.5,461.6094 A2.5,2.5 0 0 1 19,459.1094 L19,237.6094 A2.5,2.5 0 0 1 21.5,235.1094 " fill="#FFFFFF" style="stroke:#000000;stroke-width:1;"/><line style="stroke:#000000;stroke-width:1;" x1="19" x2="185.3784" y1="256.2422" y2="256.2422"/><text fill="#F8FAFC" font-family="Segoe UI" font-size="13" font-weight="bold" lengthAdjust="spacing" textLength="153.3784" x="23" y="249.1763">STUN Server (public)</text></g><!--cluster priv--><g id="cluster_priv"><path d="M742.5,235.1094 L862.6074,235.1094 A3.75,3.75 0 0 1 865.1074,237.6094 L872.1074,256.2422 L1047.5,256.2422 A2.5,2.5 0 0 1 1050,258.7422 L1050,459.6094 A2.5,2.5 0 0 1 1047.5,462.1094 L742.5,462.1094 A2.5,2.5 0 0 1 740,459.6094 L740,237.6094 A2.5,2.5 0 0 1 742.5,235.1094 " fill="#FFFFFF" style="stroke:#000000;stroke-width:1;"/><line style="stroke:#000000;stroke-width:1;" x1="740" x2="872.1074" y1="256.2422" y2="256.2422"/><text fill="#F8FAFC" font-family="Segoe UI" font-size="13" font-weight="bold" lengthAdjust="spacing" textLength="119.1074" x="744" y="249.1763">Private Network</text></g><!--cluster tc--><g id="cluster_tc"><path d="M784.2649,64.6661 C787.9609,59.2978 791.946,58.3337 796.4202,63.7924 C800.0558,57.5496 803.7713,56.3378 808.8504,62.3253 C812.1915,56.4666 817.1073,57.8354 820.1004,62.6908 C822.4832,56.5759 828.062,56.6122 831.5978,61.4842 C835.2199,55.7949 840.3232,56.7505 843.4158,62.0534 C847.5686,56.9551 851.3358,56.8634 855.0421,62.5354 C858.4447,57.6736 862.8721,57.054 866.2154,62.599 C869.3026,57.619 874.6856,55.9177 878.0274,62.3351 C883.0512,57.8169 886.9602,57.2449 890.3132,64.1344 C894.3139,60.1817 897.5027,59.9826 900.4004,65.3306 C907.7644,67.5501 907.68,73.4235 902.6703,77.8809 C910.021,80.2229 912.2003,85.6357 906.0871,91.3844 C912.9835,95.1871 913.009,101.1667 906.05,104.9314 C912.4817,109.5122 912.3046,114.9884 905.2167,118.7543 C910.5808,123.8696 909.0148,128.7805 902.3815,131.152 C908.535,135.738 909.2188,143.0945 901.0238,146.4033 C897.7196,151.3363 893.2672,151.5274 889.8859,146.4895 C885.4248,150.9356 881.7358,151.9425 878.222,145.4769 C874.9564,151.213 869.0073,151.9915 865.6078,145.6163 C862.6964,150.69 858.9726,152.229 854.6863,147.0862 C851.7154,151.5757 847.0244,153.0052 843.9794,147.1629 C840.8531,153.6943 834.668,154.5783 831.0841,147.5997 C826.7062,152.2161 822.3929,153.4328 818.8365,146.7124 C815.7519,151.9422 811.8935,152.272 808.5687,146.9461 C803.5377,153.38 799.2746,152.3028 795.6595,145.559 C792.9758,150.8879 788.2157,152.0224 784.6089,146.4989 C778.2964,142.6019 777.5277,136.7349 784.1469,132.4138 C778.4335,128.0646 779.6954,122.6047 785.3013,119.2481 C779.0115,116.0736 777.325,111.6085 782.9747,106.2902 C777.0286,102.0658 776.7942,95.3649 784.4977,92.6664 C778.0948,88.8844 778.316,82.7743 784.3718,78.8785 C777.4655,75.0123 777.5678,68.6345 784.2649,64.6661 " fill="#1E293B" style="stroke:#334155;stroke-width:1;"/><text fill="#F8FAFC" font-family="Segoe UI" font-size="13" font-weight="bold" lengthAdjust="spacing" textLength="71.792" x="806.104" y="80.6763">TideCloak</text></g><!--entity browser--><g id="elem_browser"><ellipse cx="534.9824" cy="93.1094" fill="#3B82F6" rx="8" ry="8" style="stroke:#3B82F6;stroke-width:1;"/><path d="M534.9824,101.1094 L534.9824,128.1094 M521.9824,109.1094 L547.9824,109.1094 M534.9824,128.1094 L521.9824,143.1094 M534.9824,128.1094 L547.9824,143.1094 " fill="none" style="stroke:#3B82F6;stroke-width:1;"/><text fill="#F8FAFC" font-family="Segoe UI" font-size="13" lengthAdjust="spacing" textLength="52.9648" x="508.5" y="157.1763">Browser</text></g><!--entity inet--><g id="elem_inet"><path d="M926.2436,107.6523 C929.2925,101.7993 934.9821,101.6554 938.8182,106.7479 C941.362,101.99 945.9264,101.5789 949.2155,105.8936 C952.1187,100.7321 956.6351,99.8109 960.8268,104.3516 C964.6382,100.6062 967.7344,100.1812 970.1421,105.7548 C974.9835,100.3882 979.2158,100.7519 981.9048,107.795 C986.0305,102.8979 989.7772,102.3627 993.1021,108.6003 C1001.8609,108.3881 1006.4495,115.1981 1001.4239,122.9692 C1006.5747,132.1154 1003.0312,137.7059 992.718,137.734 C990.7999,143.201 986.8167,143.7327 982.8692,139.8781 C981.8656,146.1324 976.5616,148.8999 971.3591,144.3522 C969.5407,149.9427 965.4589,151.4916 961.1215,146.88 C956.8848,151.0707 952.53,150.4915 949.9897,144.9414 C944.5564,148.7654 940.4705,147.9161 938.8284,141.0011 C933.3129,145.4775 929.5125,144.1259 927.9664,137.2148 C919.8599,135.955 917.1966,130.5402 922.8849,123.9828 C915.6234,116.8866 917.8872,111.5363 926.2436,107.6523 " fill="#1E293B" style="stroke:#334155;stroke-width:1;"/><text fill="#F8FAFC" font-family="Segoe UI" font-size="13" lengthAdjust="spacing" textLength="51.8477" x="933" y="126.6763">Internet</text></g><!--entity sig--><g id="elem_sig"><rect fill="#1E293B" height="60.2656" rx="2.5" ry="2.5" style="stroke:#334155;stroke-width:1;" width="139.2456" x="27.5" y="279.1094"/><rect fill="#1E293B" height="10" style="stroke:#334155;stroke-width:1;" width="15" x="146.7456" y="284.1094"/><rect fill="#1E293B" height="2" style="stroke:#334155;stroke-width:1;" width="4" x="144.7456" y="286.1094"/><rect fill="#1E293B" height="2" style="stroke:#334155;stroke-width:1;" width="4" x="144.7456" y="290.1094"/><text fill="#F8FAFC" font-family="Segoe UI" font-size="13" lengthAdjust="spacing" textLength="60.0361" x="42.5" y="311.1763">Signaling</text><text fill="#F8FAFC" font-family="Segoe UI" font-size="13" lengthAdjust="spacing" textLength="99.2456" x="42.5" y="326.3091">(WS port 9090)</text></g><!--entity portal--><g id="elem_portal"><rect fill="#1E293B" height="60.2656" rx="2.5" ry="2.5" style="stroke:#334155;stroke-width:1;" width="151.6362" x="185" y="279.1094"/><rect fill="#1E293B" height="10" style="stroke:#334155;stroke-width:1;" width="15" x="316.6362" y="284.1094"/><rect fill="#1E293B" height="2" style="stroke:#334155;stroke-width:1;" width="4" x="314.6362" y="286.1094"/><rect fill="#1E293B" height="2" style="stroke:#334155;stroke-width:1;" width="4" x="314.6362" y="290.1094"/><text fill="#F8FAFC" font-family="Segoe UI" font-size="13" lengthAdjust="spacing" textLength="97.8745" x="200" y="311.1763">Portal &amp; Admin</text><text fill="#F8FAFC" font-family="Segoe UI" font-size="13" lengthAdjust="spacing" textLength="111.6362" x="200" y="326.3091">(HTTP port 9090)</text></g><!--entity stunproto--><g id="elem_stunproto"><rect fill="#1E293B" height="60.2656" rx="2.5" ry="2.5" style="stroke:#334155;stroke-width:1;" width="181.2544" x="355.5" y="279.1094"/><rect fill="#1E293B" height="10" style="stroke:#334155;stroke-width:1;" width="15" x="516.7544" y="284.1094"/><rect fill="#1E293B" height="2" style="stroke:#334155;stroke-width:1;" width="4" x="514.7544" y="286.1094"/><rect fill="#1E293B" height="2" style="stroke:#334155;stroke-width:1;" width="4" x="514.7544" y="290.1094"/><text fill="#F8FAFC" font-family="Segoe UI" font-size="13" lengthAdjust="spacing" textLength="76.0259" x="370.5" y="311.1763">STUN/TURN</text><text fill="#F8FAFC" font-family="Segoe UI" font-size="13" lengthAdjust="spacing" textLength="141.2544" x="370.5" y="326.3091">(UDP+TCP port 3478)</text></g><!--entity relay--><g id="elem_relay"><rect fill="#1E293B" height="60.2656" rx="2.5" ry="2.5" style="stroke:#334155;stroke-width:1;" width="169.0415" x="554.5" y="279.1094"/><rect fill="#1E293B" height="10" style="stroke:#334155;stroke-width:1;" width="15" x="703.5415" y="284.1094"/><rect fill="#1E293B" height="2" style="stroke:#334155;stroke-width:1;" width="4" x="701.5415" y="286.1094"/><rect fill="#1E293B" height="2" style="stroke:#334155;stroke-width:1;" width="4" x="701.5415" y="290.1094"/><text fill="#F8FAFC" font-family="Segoe UI" font-size="13" lengthAdjust="spacing" textLength="76.6479" x="569.5" y="311.1763">TURN Relay</text><text fill="#F8FAFC" font-family="Segoe UI" font-size="13" lengthAdjust="spacing" textLength="129.0415" x="569.5" y="326.3091">(UDP 49152-65535)</text></g><!--entity reg--><g id="elem_reg"><path d="M51.5,404.6094 C51.5,394.6094 97.0405,394.6094 97.0405,394.6094 C97.0405,394.6094 142.5811,394.6094 142.5811,404.6094 L142.5811,443.875 C142.5811,453.875 97.0405,453.875 97.0405,453.875 C97.0405,453.875 51.5,453.875 51.5,443.875 L51.5,404.6094 " fill="#1E293B" style="stroke:#334155;stroke-width:1;"/><path d="M51.5,404.6094 C51.5,414.6094 97.0405,414.6094 97.0405,414.6094 C97.0405,414.6094 142.5811,414.6094 142.5811,404.6094 " fill="none" style="stroke:#334155;stroke-width:1;"/><text fill="#F8FAFC" font-family="Segoe UI" font-size="13" lengthAdjust="spacing" textLength="71.0811" x="61.5" y="430.6763">In-memory</text><text fill="#F8FAFC" font-family="Segoe UI" font-size="13" lengthAdjust="spacing" textLength="53.8027" x="61.5" y="445.8091">Registry</text></g><!--entity waf--><g id="elem_waf"><rect fill="#1E293B" height="60.2656" rx="2.5" ry="2.5" style="stroke:#334155;stroke-width:1;" width="114.0073" x="754" y="279.1094"/><rect fill="#1E293B" height="10" style="stroke:#334155;stroke-width:1;" width="15" x="848.0073" y="284.1094"/><rect fill="#1E293B" height="2" style="stroke:#334155;stroke-width:1;" width="4" x="846.0073" y="286.1094"/><rect fill="#1E293B" height="2" style="stroke:#334155;stroke-width:1;" width="4" x="846.0073" y="290.1094"/><text fill="#F8FAFC" font-family="Segoe UI" font-size="13" lengthAdjust="spacing" textLength="29.2246" x="769" y="311.1763">WAF</text><text fill="#F8FAFC" font-family="Segoe UI" font-size="13" lengthAdjust="spacing" textLength="74.0073" x="769" y="326.3091">(port 7891)</text></g><!--entity app1--><g id="elem_app1"><rect fill="#1E293B" height="60.2656" rx="2.5" ry="2.5" style="stroke:#334155;stroke-width:1;" width="137.9824" x="748" y="394.1094"/><rect fill="#1E293B" height="10" style="stroke:#334155;stroke-width:1;" width="15" x="865.9824" y="399.1094"/><rect fill="#1E293B" height="2" style="stroke:#334155;stroke-width:1;" width="4" x="863.9824" y="401.1094"/><rect fill="#1E293B" height="2" style="stroke:#334155;stroke-width:1;" width="4" x="863.9824" y="405.1094"/><text fill="#F8FAFC" font-family="Segoe UI" font-size="13" lengthAdjust="spacing" textLength="97.9824" x="763" y="426.1763">Backend App 1</text><text fill="#F8FAFC" font-family="Segoe UI" font-size="13" lengthAdjust="spacing" textLength="74.0073" x="763" y="441.3091">(port 3000)</text></g><!--entity app2--><g id="elem_app2"><rect fill="#1E293B" height="60.2656" rx="2.5" ry="2.5" style="stroke:#334155;stroke-width:1;" width="137.9824" x="904" y="394.1094"/><rect fill="#1E293B" height="10" style="stroke:#334155;stroke-width:1;" width="15" x="1021.9824" y="399.1094"/><rect fill="#1E293B" height="2" style="stroke:#334155;stroke-width:1;" width="4" x="1019.9824" y="401.1094"/><rect fill="#1E293B" height="2" style="stroke:#334155;stroke-width:1;" width="4" x="1019.9824" y="405.1094"/><text fill="#F8FAFC" font-family="Segoe UI" font-size="13" lengthAdjust="spacing" textLength="97.9824" x="919" y="426.1763">Backend App 2</text><text fill="#F8FAFC" font-family="Segoe UI" font-size="13" lengthAdjust="spacing" textLength="74.0073" x="919" y="441.3091">(port 8080)</text></g><!--entity oidc--><g id="elem_oidc"><rect fill="#1E293B" height="45.1328" rx="2.5" ry="2.5" style="stroke:#334155;stroke-width:1;" width="116.2671" x="784" y="99.6094"/><rect fill="#1E293B" height="10" style="stroke:#334155;stroke-width:1;" width="15" x="880.2671" y="104.6094"/><rect fill="#1E293B" height="2" style="stroke:#334155;stroke-width:1;" width="4" x="878.2671" y="106.6094"/><rect fill="#1E293B" height="2" style="stroke:#334155;stroke-width:1;" width="4" x="878.2671" y="110.6094"/><text fill="#F8FAFC" font-family="Segoe UI" font-size="13" lengthAdjust="spacing" textLength="76.2671" x="799" y="131.6763">OIDC / Auth</text></g><polygon fill="#94A3B8" points="250.7795,279.0267,252.1924,269.2797,249.4253,274.2136,244.4914,271.4465,250.7795,279.0267" style="stroke:#94A3B8;stroke-width:1;"/><path d="M508.4532,124.2755 C445.5725,127.6501 290.4539,139.769 259,178.1094 C236.0219,206.1182 241.0173,244.33 249.1545,273.251 " fill="none" style="stroke:#94A3B8;stroke-width:1;"/><text fill="#94A3B8" font-family="Segoe UI" font-size="13" lengthAdjust="spacing" textLength="76.0195" x="261" y="199.6763">1. Pick WAF</text><text fill="#94A3B8" font-family="Segoe UI" font-size="13" lengthAdjust="spacing" textLength="43.6401" x="277.1897" y="214.8091">(HTTP)</text><polygon fill="#94A3B8" points="90.0498,278.8466,92.4569,269.2964,89.1974,273.9198,84.574,270.6603,90.0498,278.8466" style="stroke:#94A3B8;stroke-width:1;"/><path d="M508.4111,124.6193 C419.3921,129.9311 135.8454,149.0201 108,178.1094 C82.7052,204.534 83.9246,243.4439 89.0269,272.9344 " fill="none" style="stroke:#94A3B8;stroke-width:1;"/><text fill="#94A3B8" font-family="Segoe UI" font-size="13" lengthAdjust="spacing" textLength="86.7788" x="131.0012" y="199.6763">2. HTTP relay</text><text fill="#94A3B8" font-family="Segoe UI" font-size="13" lengthAdjust="spacing" textLength="128.7813" x="110" y="214.8091">(WebSocket tunnel)</text><polygon fill="#94A3B8" points="451.5502,279.0959,457.3985,271.1714,452.6294,274.2137,449.5871,269.4446,451.5502,279.0959" style="stroke:#94A3B8;stroke-width:1;"/><path d="M508.4187,149.1074 C500.6819,157.7627 492.7696,167.8316 487,178.1094 C468.8705,210.4049 458.8796,245.9394 452.8453,273.2373 " fill="none" style="stroke:#94A3B8;stroke-width:1;"/><text fill="#94A3B8" font-family="Segoe UI" font-size="13" lengthAdjust="spacing" textLength="105.2251" x="489" y="199.6763">3. STUN Binding</text><text fill="#94A3B8" font-family="Segoe UI" font-size="13" lengthAdjust="spacing" textLength="103.3018" x="489.9617" y="214.8091">(NAT discovery)</text><polygon fill="#94A3B8" points="561.665,142.0373,566.1533,150.8041,565.5548,145.179,571.1799,144.5805,561.665,142.0373" style="stroke:#94A3B8;stroke-width:1;"/><polygon fill="#94A3B8" points="631.2808,279.1001,632.7428,269.3603,629.9509,274.2802,625.031,271.4883,631.2808,279.1001" style="stroke:#94A3B8;stroke-width:1;"/><path d="M566.3327,145.8073 C578.2548,155.4364 586.9593,164.2578 596,178.1094 C606.9791,194.9309 620.6061,240.4137 629.6849,273.3162 " fill="none" style="stroke:#94A3B8;stroke-width:1;"/><text fill="#94A3B8" font-family="Segoe UI" font-size="13" lengthAdjust="spacing" textLength="89.4956" x="617.9998" y="199.6763">5. TURN relay</text><text fill="#94A3B8" font-family="Segoe UI" font-size="13" lengthAdjust="spacing" textLength="91.4951" x="617" y="214.8091">(NAT fallback)</text><polygon fill="#94A3B8" points="561.6349,124.2325,570.2946,128.924,566.6196,124.6234,570.9201,120.9485,561.6349,124.2325" style="stroke:#94A3B8;stroke-width:1;"/><polygon fill="#94A3B8" points="777.4657,279.0564,773.719,269.9481,773.8495,275.6035,768.1942,275.734,777.4657,279.0564" style="stroke:#94A3B8;stroke-width:1;"/><path d="M567.6165,124.7016 C606.0521,127.7164 671.1627,138.2424 714,178.1094 C731.0985,194.0223 720.4305,207.4221 733,227.1094 C745.1866,246.1969 758.0048,260.4739 773.1263,274.9129 " fill="none" style="stroke:#94A3B8;stroke-width:1;"/><text fill="#94A3B8" font-family="Segoe UI" font-size="13" lengthAdjust="spacing" textLength="129.0288" x="735" y="199.6763">4. P2P DataChannel</text><text fill="#94A3B8" font-family="Segoe UI" font-size="13" lengthAdjust="spacing" textLength="99.0044" x="750.0122" y="214.8091">(hole-punched)</text><polygon fill="#94A3B8" points="121.7862,278.8055,130.8318,274.9099,125.1794,275.1332,124.9561,269.4808,121.7862,278.8055" style="stroke:#94A3B8;stroke-width:1;"/><polygon fill="#94A3B8" points="788.6951,278.9589,785.9138,269.5109,785.4568,275.1493,779.8184,274.6922,788.6951,278.9589" style="stroke:#94A3B8;stroke-width:1;"/><path d="M125.858,274.3987 C140.1199,258.9637 155.2319,245.6785 176,235.1094 C243.5469,200.7341 268.0465,210.2523 343.5,203.1094 C517.7442,186.6143 578.217,159.362 736,235.1094 C756.7775,245.0841 771.3848,258.5948 784.8091,274.3874 " fill="none" style="stroke:#94A3B8;stroke-width:1;"/><text fill="#94A3B8" font-family="Segoe UI" font-size="13" lengthAdjust="spacing" textLength="90.0098" x="358.1953" y="192.1763">Persistent WS</text><text fill="#94A3B8" font-family="Segoe UI" font-size="13" lengthAdjust="spacing" textLength="95.3862" x="355.5071" y="207.3091">(registration +</text><text fill="#94A3B8" font-family="Segoe UI" font-size="13" lengthAdjust="spacing" textLength="115.4004" x="345.5" y="222.4419">relay + signaling)</text><polygon fill="#94A3B8" points="97,394.4989,101,385.4989,97,389.4989,93,385.4989,97,394.4989" style="stroke:#94A3B8;stroke-width:1;"/><path d="M97,339.2097 C97,356.2118 97,371.5817 97,388.4989 " fill="none" style="stroke:#94A3B8;stroke-width:1;"/><polygon fill="#94A3B8" points="815.4601,394.1077,818.9773,384.9083,815.195,389.1147,810.9885,385.3324,815.4601,394.1077" style="stroke:#94A3B8;stroke-width:1;"/><path d="M812.5451,339.2097 C813.441,356.081 814.247,371.2616 815.142,388.1161 " fill="none" style="stroke:#94A3B8;stroke-width:1;"/><text fill="#94A3B8" font-family="Segoe UI" font-size="13" lengthAdjust="spacing" textLength="36.5244" x="817" y="371.1763">Proxy</text><polygon fill="#94A3B8" points="931.4223,394.1077,926.3291,385.678,927.3214,391.2472,921.7523,392.2395,931.4223,394.1077" style="stroke:#94A3B8;stroke-width:1;"/><path d="M852.719,339.2097 C876.9062,356.081 902.3381,373.8205 926.5013,390.6751 " fill="none" style="stroke:#94A3B8;stroke-width:1;"/><text fill="#94A3B8" font-family="Segoe UI" font-size="13" lengthAdjust="spacing" textLength="36.5244" x="903" y="371.1763">Proxy</text><polygon fill="#94A3B8" points="855.954,144.6619,856.9023,154.465,858.4152,149.0142,863.866,150.5271,855.954,144.6619" style="stroke:#94A3B8;stroke-width:1;"/><path d="M858.9074,149.8847 C864.4446,159.6767 867.2005,166.4399 870,178.1094 C875.0803,199.2863 876.7422,206.4016 870,227.1094 C863.8059,246.1336 851.2708,264.4113 839.3416,278.7742 " fill="none" style="stroke:#94A3B8;stroke-width:1;"/><text fill="#94A3B8" font-family="Segoe UI" font-size="13" lengthAdjust="spacing" textLength="33.1538" x="908.9316" y="199.6763">OIDC</text><text fill="#94A3B8" font-family="Segoe UI" font-size="13" lengthAdjust="spacing" textLength="99.0171" x="876" y="214.8091">code exchange</text><polygon fill="#94A3B8" points="783.9709,122.1094,774.9709,118.1094,778.9709,122.1094,774.9709,126.1094,783.9709,122.1094" style="stroke:#94A3B8;stroke-width:1;"/><path d="M561.7072,122.1094 C611.0151,122.1094 711.3745,122.1094 777.9709,122.1094 " fill="none" style="stroke:#94A3B8;stroke-width:1;"/><text fill="#94A3B8" font-family="Segoe UI" font-size="13" lengthAdjust="spacing" textLength="35.2993" x="655.521" y="99.1763">Login</text><text fill="#94A3B8" font-family="Segoe UI" font-size="13" lengthAdjust="spacing" textLength="103.8413" x="621.25" y="114.3091">(via WAF proxy)</text><!--SRC=[VLJTRjem5BxFKvmoQMfLGKa2BKpJ94fLjTf4KGFYfZScEGaMYHqv1igcINk8FU6UPCVvWK93xo9_F_xiypbdUe49GXepBgopLB4eOH2phLnfo1BKJ31BSnqZVCTjZ9xt0F_-_0LlcsbCu6cDQirnOrdPaekKAPR0BmjWplnbfEHA14CPImMVsg5zup120WpPAjRtKkWI2diX2_r3QCGeKyF3I29C7nk7eCT_8jWkBGwKaflIfjzXxhnNBRxntm4ZgV7sE9YDJj-TLwXK0QeISTsEtUsMI5tUeKnIAL3eqwPxIgtp3gwplsEQpLdsGUGTezQyGckZnt8LV10xX-iZ6wZEyXbzAaiKdqYpXq_kkgFKsGzyBTMXzRpdXDSxwAHj3h-t_6rPp23GkAM-PAWQm3AO5zyxTyitvuN6ez2e1EgSnEc3QauEAUtA8bFLoNG47Zq6qfwdgtdC_OkSc-cLo9-4NysQo3mIBEOYUX7dCmzIgJJqs_rsgU3H8NrCE8lXCmo2X0lIF4mcusDLcfEEzg5GLvFfyuWqqxlnvMHOojpEJMyVBrLIoqEb4T4yw3zGIA7JjxjEyxhRTRk5K1dGlCkoPUQAcWacKf7a6IEUQRKjcT71LOqLNpEDC4AzaMfPfAUrurkQ3UvfypplJQzl5zjkM7Z8CdD74S0WJS6k-6wxNLuBIrFxjC2f1BrsRozmJDnoxXCU85MU5J6rVnpowV5k25SmMEb5pf0yoAjLzQWPo8reVYl70r-WORTWpFqb5CSpexnelADJ1mpNQK4-QrLEOePpJr9y3JGsWN6TiXgeqRijo8jvoqLGr6qqc430CrzIKRTlv5yhVRwLqNPRaBUWsjieGnR7vjT-85GyMcXIqcYChaFdSyRvtsUuO2ObYHSoncQw4lu20n9Rvdplb6DK6TN6tElC8v4gMiGqbm8kNqGHxT9SJl5yoCaOxQD7bcMygWKp_DnOoTTjunXoZg4OGvF6ZD10PhGlmfS10hxwT9G8trntbRrY_v1H_ZRNd9dHKgF9c0B-1m00]--></g></svg>